Coordinates
version=1
nRows=9
nColumns=63
inDegrees=yes

Units are S.I. units (second, meters, Newtons, ...)
If the header above contains a line with 'inDegrees', this indicates whether rotational values are in degrees (yes) or radians (no).

endheader
time	pelvis_tilt	pelvis_list	pelvis_rotation	pelvis_tx	pelvis_ty	pelvis_tz	hip_flexion_r	hip_adduction_r	hip_rotation_r	knee_angle_r	knee_angle_r_beta	ankle_angle_r	subtalar_angle_r	mtp_angle_r	hip_flexion_l	hip_adduction_l	hip_rotation_l	knee_angle_l	knee_angle_l_beta	ankle_angle_l	subtalar_angle_l	mtp_angle_l	L5_S1_Flex_Ext	L5_S1_Lat_Bending	L5_S1_axial_rotation	L4_L5_Flex_Ext	L4_L5_Lat_Bending	L4_L5_axial_rotation	L3_L4_Flex_Ext	L3_L4_Lat_Bending	L3_L4_axial_rotation	L2_L3_Flex_Ext	L2_L3_Lat_Bending	L2_L3_axial_rotation	L1_L2_Flex_Ext	L1_L2_Lat_Bending	L1_L2_axial_rotation	L1_T12_Flex_Ext	L1_T12_Lat_Bending	L1_T12_axial_rotation	Abs_r3	Abs_r2	Abs_r1	Abs_t1	Abs_t2	neck_flexion	neck_bending	neck_rotation	arm_flex_r	arm_add_r	arm_rot_r	elbow_flex_r	pro_sup_r	wrist_flex_r	wrist_dev_r	arm_flex_l	arm_add_l	arm_rot_l	elbow_flex_l	pro_sup_l	wrist_flex_l	wrist_dev_l
      0.81355932	      0.42209235	     -4.03185966	     88.38261177	      0.24449483	      0.96876293	      0.49737082	      8.16093657	     -0.37347825	     -4.93224172	      9.07904471	      0.15845922	     34.69097499	     13.18219979	      0.00000000	      6.11641143	     -1.22797909	      4.63543458	      0.69769835	      0.01217713	     30.96533557	     -2.76325541	      0.00000000	      0.01534342	     -0.16164948	      0.90272558	      0.02849427	     -0.21499381	      0.95914593	      0.02520771	     -0.39303454	      0.95914593	      0.01753600	     -0.39303454	      0.78988488	      0.01424790	     -0.32963561	      0.73346453	      0.00876723	     -0.25039504	      0.67704418	      0.10959654	     -1.82861122	      5.02068885	      0.00000000	      0.00000000	     20.39013827	      2.45411507	     -5.10306097	     12.77995660	     -7.45639552	    134.94822866	      4.53315897	      9.84356209	     -8.83980572	     -1.05782206	     13.56925735	    -12.24592052	    136.97959173	      3.30623970	     21.03475947	    -17.30150174	     -4.88407407
      0.83050847	      0.46121347	     -4.02138614	     88.20597486	      0.24538535	      0.96864106	      0.49767364	      8.23474927	     -0.24532598	     -4.76255154	      8.99481743	      0.15698918	     35.14692608	     13.31687691	      0.00000000	      6.11825719	     -1.34213641	      4.63036686	      0.66954995	      0.01168585	     31.12538286	     -2.77686846	      0.00000000	     -0.00231205	     -0.16919312	      0.89290067	     -0.00429371	     -0.22502685	      0.94870696	     -0.00379847	     -0.41137615	      0.94870696	     -0.00264244	     -0.41137615	      0.78128808	     -0.00214697	     -0.34501860	      0.72548179	     -0.00132110	     -0.26208014	      0.66967550	     -0.01651473	     -1.91394638	      4.96604563	      0.00000000	      0.00000000	     20.51214252	      2.45148032	     -5.28879505	     12.77954722	     -7.31529289	    134.95251288	      4.46996088	      9.83209480	     -8.95328304	     -1.04854944	     13.15847369	    -12.73214407	    136.93437602	      3.32466113	     21.01878924	    -17.35810739	     -4.87969088
      0.84745763	      0.18383731	     -4.01492855	     87.40313612	      0.24666866	      0.96839816	      0.49770236	      8.46253984	     -0.45017330	     -4.50431493	      9.18864720	      0.16037215	     35.72022501	     14.13809636	      0.00000000	      6.03227034	     -1.14993201	      3.81818480	      0.62517178	      0.01091131	     31.29719268	     -2.64531037	      0.00000000	     -0.01440169	     -0.21719222	      1.03966480	     -0.02674538	     -0.28886565	      1.10464385	     -0.02366054	     -0.52808115	      1.10464385	     -0.01645969	     -0.52808115	      0.90970670	     -0.01337341	     -0.44289837	      0.84472765	     -0.00822913	     -0.33643074	      0.77974860	     -0.10286985	     -2.45692178	      5.78230371	      0.00000000	      0.00000000	     20.85776793	      2.15108549	     -7.07308631	     12.61488677	     -7.10401296	    134.16058183	      4.70198786	      9.02650436	     -9.80624989	     -0.83139463	     12.62778721	    -13.17202776	    136.52303528	      3.42287723	     21.25912694	    -19.62763956	     -5.77814472
      0.86440678	      0.14538037	     -3.93713790	     87.27379120	      0.24688708	      0.96814350	      0.49752940	      8.39965686	     -0.46808256	     -4.39053747	      9.16685749	      0.15999185	     36.08096527	     14.28385953	      0.00000000	      5.94076676	     -1.12812847	      3.72882752	      0.59415340	      0.01036993	     31.54445204	     -2.47757825	      0.00000000	     -0.02918035	     -0.22627548	      1.01550299	     -0.05419083	     -0.30094638	      1.07897193	     -0.04794040	     -0.55016619	      1.07897193	     -0.03335022	     -0.55016619	      0.88856512	     -0.02709687	     -0.46142095	      0.82509618	     -0.01667365	     -0.35050071	      0.76162724	     -0.20843232	     -2.55967343	      5.64792297	      0.00000000	      0.00000000	     20.95063864	      2.05876695	     -7.58725056	     12.67377886	     -7.05975334	    133.07393140	      5.21322240	      8.13551611	     -9.58283820	     -0.44361841	     11.85937584	    -13.27792221	    137.24449588	      2.78436572	     22.07668752	    -20.79521448	     -6.04662498
      0.88135593	      0.15572797	     -3.94740567	     87.40112568	      0.24698559	      0.96769765	      0.49742243	      8.44404838	     -0.45761587	     -4.46026422	      9.28710791	      0.16209061	     36.35911162	     14.25578386	      0.00000000	      5.99637689	     -1.13893369	      3.60649733	      0.58157683	      0.01015043	     31.74965313	     -2.03637327	      0.00000000	     -0.02813988	     -0.23029477	      1.00816543	     -0.05225857	     -0.30629204	      1.07117577	     -0.04623101	     -0.55993869	      1.07117577	     -0.03216107	     -0.55993869	      0.88214475	     -0.02613069	     -0.46961709	      0.81913441	     -0.01607913	     -0.35672659	      0.75612407	     -0.20100034	     -2.60514045	      5.60711368	      0.00000000	      0.00000000	     20.97466595	      1.75389277	     -8.22546173	     12.65263109	     -7.22042889	    130.14173431	      6.22647010	      6.16245724	     -8.84156423	     -0.08707650	     11.51584846	    -13.39610805	    139.62605927	      2.55936962	     24.48718671	    -23.08847563	     -5.96619165
      0.89830508	      0.08144853	     -3.93354962	     87.43842022	      0.24663135	      0.96728433	      0.49753756	      8.40505922	     -0.56590471	     -4.50065889	      9.23236376	      0.16113515	     36.59298057	     14.36103390	      0.00000000	      6.03352384	     -1.03015408	      2.72311038	      0.55126466	      0.00962138	     32.19061505	     -0.69517751	      0.00000000	     -0.03934109	     -0.23741383	      1.08294217	     -0.07306033	     -0.31576039	      1.15062606	     -0.06463347	     -0.57724798	      1.15062606	     -0.04496293	     -0.57724798	      0.94757440	     -0.03653213	     -0.48413427	      0.87989051	     -0.02247950	     -0.36775402	      0.81220663	     -0.28100946	     -2.68567268	      6.02299947	      0.00000000	      0.00000000	     21.01160486	      1.59051919	     -9.12595732	     12.12075939	     -7.47845148	    124.03257728	      6.82809101	      6.27071698	     -8.50768043	     -0.67669931	     11.84784394	    -13.09276484	    143.26476258	      2.67185096	     28.96176514	    -24.45006738	     -1.87717251
      0.91525424	      0.25452361	     -4.08850626	     87.93380159	      0.24556898	      0.96666415	      0.49774595	      8.49814301	     -0.47015143	     -4.90958534	      9.20220842	      0.16060884	     36.66250676	     14.23308360	      0.00000000	      6.30519042	     -1.13766828	      2.59376731	      0.54677923	      0.00954310	     32.53181877	      0.29421725	      0.00000000	     -0.02754432	     -0.20937314	      0.98913140	     -0.05115255	     -0.27846628	      1.05095211	     -0.04525256	     -0.50906985	      1.05095211	     -0.03148040	     -0.50906985	      0.86548998	     -0.02557765	     -0.42695371	      0.80366926	     -0.01573882	     -0.32431899	      0.74184855	     -0.19674631	     -2.36847084	      5.50125211	      0.00000000	      0.00000000	     20.96147205	      1.60993185	     -9.16929348	     12.06447968	     -7.72482250	    121.20189142	      7.40025293	      6.46549543	     -7.75176532	     -0.33421015	     11.61382728	    -12.90547480	    144.74060019	      2.48568554	     30.90613619	    -24.88620725	     -1.15068606
      0.93220339	      0.26486482	     -4.15760686	     87.93836653	      0.24485118	      0.96631089	      0.49785397	      8.56634429	     -0.51441405	     -4.91055350	      9.22369093	      0.16098378	     36.60126532	     14.24393408	      0.00000000	      6.39651535	     -1.09772368	      2.62418579	      0.53071077	      0.00926265	     32.64471712	      0.33580741	      0.00000000	     -0.03324855	     -0.19762054	      0.98030605	     -0.06174589	     -0.26283532	      1.04157518	     -0.05462405	     -0.48049458	      1.04157518	     -0.03799977	     -0.48049458	      0.85776779	     -0.03087461	     -0.40298781	      0.79649867	     -0.01899822	     -0.30611422	      0.73522954	     -0.23749109	     -2.23552307	      5.45216816	      0.00000000	      0.00000000	     20.95518389	      1.67646766	     -9.23122193	     12.11249033	     -7.78875533	    121.14611590	      7.57390178	      6.51815301	     -7.65261804	     -0.31529273	     11.46733149	    -12.74519424	    144.78369085	      2.58887441	     30.96117198	    -24.82673907	     -1.10713780
      0.94915254	      0.55024697	     -4.46281280	     88.25189246	      0.24391476	      0.96581052	      0.49825249	      8.87849402	     -0.28016124	     -5.25164207	      9.26436659	      0.16169370	     36.51303295	     14.14071353	      0.00000000	      6.78197502	     -1.34196786	      2.74957878	      0.55523654	      0.00969071	     32.66472304	      0.57127790	      0.00000000	     -0.00208961	     -0.16000825	      0.91729036	     -0.00388061	     -0.21281098	      0.97462101	     -0.00343301	     -0.38904407	      0.97462101	     -0.00238821	     -0.38904407	      0.80262906	     -0.00194041	     -0.32628883	      0.74529842	     -0.00119400	     -0.24785279	      0.68796777	     -0.01492584	     -1.81004538	      5.10169378	      0.00000000	      0.00000000	     20.64627578	      1.97844592	     -9.36840171	     12.48236908	     -8.13755539	    121.10238715	      8.33218416	      7.02249804	     -6.96268532	     -0.34722356	     11.39149557	    -12.49245124	    144.61884021	      2.73294150	     30.90191987	    -24.32105958	     -0.60056645
